<mxfile host="65bd71144e">
    <diagram id="6a731a19-8d31-9384-78a2-239565b7b9f0" name="Page-1">
        <mxGraphModel dx="1086" dy="807" grid="1" gridSize="10" guides="1" tooltips="1" connect="1" arrows="1" fold="1" page="1" pageScale="1" pageWidth="1169" pageHeight="827" math="0" shadow="0">
            <root>
                <mxCell id="0"/>
                <mxCell id="1" parent="0"/>
                <mxCell id="1350" value="Nym chain" style="ellipse;whiteSpace=wrap;html=1;shadow=0;fontFamily=Helvetica;fontSize=20;align=center;strokeWidth=3;strokeColor=#006EAF;fillColor=#1ba1e2;fontColor=#ffffff;" parent="1" vertex="1">
                    <mxGeometry x="660" y="80" width="120" height="120" as="geometry"/>
                </mxCell>
                <mxCell id="1358" value="validator" style="strokeColor=#006EAF;strokeWidth=3;shadow=0;html=1;fillColor=#1ba1e2;fontColor=#ffffff;" parent="1" vertex="1">
                    <mxGeometry x="680" y="249" width="130" height="40" as="geometry"/>
                </mxCell>
                <mxCell id="1367" value="validator" style="strokeColor=#006EAF;strokeWidth=3;shadow=0;html=1;fillColor=#1ba1e2;fontColor=#ffffff;" parent="1" vertex="1">
                    <mxGeometry x="800" y="169" width="130" height="40" as="geometry"/>
                </mxCell>
                <mxCell id="1368" value="validator" style="strokeColor=#006EAF;strokeWidth=3;shadow=0;html=1;fillColor=#1ba1e2;fontColor=#ffffff;" parent="1" vertex="1">
                    <mxGeometry x="530" y="209" width="130" height="40" as="geometry"/>
                </mxCell>
                <mxCell id="1369" value="validator" style="strokeColor=#006EAF;strokeWidth=3;shadow=0;html=1;fillColor=#1ba1e2;fontColor=#ffffff;" parent="1" vertex="1">
                    <mxGeometry x="490" y="120" width="130" height="40" as="geometry"/>
                </mxCell>
                <mxCell id="1370" value="validator" style="strokeColor=#006EAF;strokeWidth=3;shadow=0;html=1;fillColor=#1ba1e2;fontColor=#ffffff;" parent="1" vertex="1">
                    <mxGeometry x="530" y="40" width="130" height="40" as="geometry"/>
                </mxCell>
                <mxCell id="1375" value="validator" style="strokeColor=#006EAF;strokeWidth=3;shadow=0;html=1;fillColor=#1ba1e2;fontColor=#ffffff;" parent="1" vertex="1">
                    <mxGeometry x="700" y="10" width="130" height="40" as="geometry"/>
                </mxCell>
                <mxCell id="1376" value="validator" style="strokeColor=#006EAF;strokeWidth=3;shadow=0;html=1;fillColor=#1ba1e2;fontColor=#ffffff;" parent="1" vertex="1">
                    <mxGeometry x="810" y="80" width="130" height="40" as="geometry"/>
                </mxCell>
                <mxCell id="1377" value="" style="edgeStyle=none;endArrow=none;strokeWidth=3;html=1;strokeColor=#FFFFFF;" parent="1" source="1350" target="1376" edge="1">
                    <mxGeometry x="101.5" y="-20" width="100" height="100" as="geometry">
                        <mxPoint x="101.5" y="80" as="sourcePoint"/>
                        <mxPoint x="201.5" y="-20" as="targetPoint"/>
                    </mxGeometry>
                </mxCell>
                <mxCell id="1378" value="" style="edgeStyle=none;endArrow=none;strokeWidth=3;html=1;strokeColor=#FFFFFF;" parent="1" source="1350" target="1367" edge="1">
                    <mxGeometry x="101.5" y="-20" width="100" height="100" as="geometry">
                        <mxPoint x="101.5" y="80" as="sourcePoint"/>
                        <mxPoint x="201.5" y="-20" as="targetPoint"/>
                    </mxGeometry>
                </mxCell>
                <mxCell id="1379" value="" style="edgeStyle=none;endArrow=none;strokeWidth=3;html=1;strokeColor=#FFFFFF;" parent="1" source="1350" target="1358" edge="1">
                    <mxGeometry x="101.5" y="-20" width="100" height="100" as="geometry">
                        <mxPoint x="101.5" y="80" as="sourcePoint"/>
                        <mxPoint x="201.5" y="-20" as="targetPoint"/>
                    </mxGeometry>
                </mxCell>
                <mxCell id="1380" value="" style="edgeStyle=none;endArrow=none;strokeWidth=3;html=1;strokeColor=#FFFFFF;" parent="1" source="1350" target="1368" edge="1">
                    <mxGeometry x="101.5" y="-20" width="100" height="100" as="geometry">
                        <mxPoint x="101.5" y="80" as="sourcePoint"/>
                        <mxPoint x="201.5" y="-20" as="targetPoint"/>
                    </mxGeometry>
                </mxCell>
                <mxCell id="1381" value="" style="edgeStyle=none;endArrow=none;strokeWidth=3;html=1;strokeColor=#FFFFFF;" parent="1" source="1350" target="1369" edge="1">
                    <mxGeometry x="101.5" y="-20" width="100" height="100" as="geometry">
                        <mxPoint x="101.5" y="80" as="sourcePoint"/>
                        <mxPoint x="201.5" y="-20" as="targetPoint"/>
                    </mxGeometry>
                </mxCell>
                <mxCell id="1382" value="" style="edgeStyle=none;endArrow=none;strokeWidth=3;html=1;strokeColor=#FFFFFF;" parent="1" source="1350" target="1370" edge="1">
                    <mxGeometry x="101.5" y="-20" width="100" height="100" as="geometry">
                        <mxPoint x="101.5" y="80" as="sourcePoint"/>
                        <mxPoint x="201.5" y="-20" as="targetPoint"/>
                    </mxGeometry>
                </mxCell>
                <mxCell id="1387" value="" style="edgeStyle=none;endArrow=none;strokeWidth=3;html=1;strokeColor=#FFFFFF;" parent="1" source="1350" target="1375" edge="1">
                    <mxGeometry x="101.5" y="-20" width="100" height="100" as="geometry">
                        <mxPoint x="101.5" y="80" as="sourcePoint"/>
                        <mxPoint x="201.5" y="-20" as="targetPoint"/>
                    </mxGeometry>
                </mxCell>
                <mxCell id="iYXQ7Nyt1rIkLqZsySKX-1542" value="mixnode" style="strokeColor=#006EAF;strokeWidth=3;shadow=0;html=1;fillColor=#1ba1e2;fontColor=#ffffff;" parent="1" vertex="1">
                    <mxGeometry x="140" y="133" width="120" height="40" as="geometry"/>
                </mxCell>
                <mxCell id="iYXQ7Nyt1rIkLqZsySKX-1575" style="edgeStyle=orthogonalEdgeStyle;orthogonalLoop=1;jettySize=auto;html=1;exitX=0.5;exitY=0;exitDx=0;exitDy=0;startArrow=none;shadow=0;fontSize=12;strokeWidth=1;strokeColor=#FFFFFF;" parent="1" source="iYXQ7Nyt1rIkLqZsySKX-1543" target="iYXQ7Nyt1rIkLqZsySKX-1542" edge="1">
                    <mxGeometry relative="1" as="geometry"/>
                </mxCell>
                <mxCell id="iYXQ7Nyt1rIkLqZsySKX-1543" value="mixnode" style="strokeColor=#006EAF;strokeWidth=3;shadow=0;html=1;fillColor=#1ba1e2;fontColor=#ffffff;" parent="1" vertex="1">
                    <mxGeometry x="140" y="209" width="120" height="40" as="geometry"/>
                </mxCell>
                <mxCell id="iYXQ7Nyt1rIkLqZsySKX-1544" value="mixnode" style="strokeColor=#006EAF;strokeWidth=3;shadow=0;html=1;comic=0;fillColor=#1ba1e2;fontColor=#ffffff;" parent="1" vertex="1">
                    <mxGeometry x="290" y="285" width="120" height="40" as="geometry"/>
                </mxCell>
                <mxCell id="iYXQ7Nyt1rIkLqZsySKX-1598" style="edgeStyle=orthogonalEdgeStyle;orthogonalLoop=1;jettySize=auto;html=1;startArrow=classicThin;startFill=1;strokeWidth=1;exitX=1;exitY=0.5;exitDx=0;exitDy=0;entryX=0.5;entryY=1;entryDx=0;entryDy=0;strokeColor=#FFFFFF;" parent="1" source="iYXQ7Nyt1rIkLqZsySKX-1545" target="1358" edge="1">
                    <mxGeometry relative="1" as="geometry">
                        <mxPoint x="782" y="340" as="targetPoint"/>
                    </mxGeometry>
                </mxCell>
                <mxCell id="iYXQ7Nyt1rIkLqZsySKX-1545" value="gateway" style="strokeColor=#006EAF;strokeWidth=3;shadow=0;html=1;fillColor=#1ba1e2;fontColor=#ffffff;" parent="1" vertex="1">
                    <mxGeometry x="215" y="360" width="120" height="40" as="geometry"/>
                </mxCell>
                <mxCell id="iYXQ7Nyt1rIkLqZsySKX-1546" value="mixnode" style="strokeColor=#006EAF;strokeWidth=3;shadow=0;html=1;fillColor=#1ba1e2;fontColor=#ffffff;" parent="1" vertex="1">
                    <mxGeometry x="290" y="209" width="120" height="40" as="geometry"/>
                </mxCell>
                <mxCell id="iYXQ7Nyt1rIkLqZsySKX-1547" value="mixnode" style="strokeColor=#006EAF;strokeWidth=3;shadow=0;html=1;fillColor=#1ba1e2;fontColor=#ffffff;" parent="1" vertex="1">
                    <mxGeometry x="290" y="133" width="120" height="40" as="geometry"/>
                </mxCell>
                <mxCell id="iYXQ7Nyt1rIkLqZsySKX-1550" value="mixnode" style="strokeColor=#006EAF;strokeWidth=3;shadow=0;html=1;fillColor=#1ba1e2;fontColor=#ffffff;" parent="1" vertex="1">
                    <mxGeometry x="140" y="285" width="120" height="40" as="geometry"/>
                </mxCell>
                <mxCell id="iYXQ7Nyt1rIkLqZsySKX-1552" value="Alice" style="shape=umlActor;verticalLabelPosition=bottom;verticalAlign=top;html=1;outlineConnect=0;fillColor=#09555B;strokeColor=#BAC8D3;fontColor=#EEEEEE;" parent="1" vertex="1">
                    <mxGeometry x="80" y="680" width="30" height="60" as="geometry"/>
                </mxCell>
                <mxCell id="iYXQ7Nyt1rIkLqZsySKX-1590" style="edgeStyle=orthogonalEdgeStyle;orthogonalLoop=1;jettySize=auto;html=1;exitX=0.5;exitY=1;exitDx=0;exitDy=0;entryX=0.5;entryY=0;entryDx=0;entryDy=0;startArrow=classicThin;startFill=1;strokeColor=#FFFFFF;" parent="1" source="iYXQ7Nyt1rIkLqZsySKX-1558" target="iYXQ7Nyt1rIkLqZsySKX-1589" edge="1">
                    <mxGeometry relative="1" as="geometry"/>
                </mxCell>
                <mxCell id="iYXQ7Nyt1rIkLqZsySKX-1558" value="service provider" style="strokeColor=#BD7000;strokeWidth=3;shadow=0;html=1;fillColor=#f0a30a;fontColor=#FFFFFF;" parent="1" vertex="1">
                    <mxGeometry x="490" y="660" width="130" height="40" as="geometry"/>
                </mxCell>
                <object label="" id="iYXQ7Nyt1rIkLqZsySKX-1583">
                    <mxCell style="edgeStyle=orthogonalEdgeStyle;orthogonalLoop=1;jettySize=auto;html=1;exitX=0.5;exitY=0;exitDx=0;exitDy=0;startArrow=classic;startFill=1;endArrow=classicThin;endFill=1;strokeColor=#FFFFFF;" parent="1" source="iYXQ7Nyt1rIkLqZsySKX-1559" edge="1">
                        <mxGeometry relative="1" as="geometry">
                            <mxPoint x="275" y="400" as="targetPoint"/>
                            <Array as="points">
                                <mxPoint x="550" y="510"/>
                                <mxPoint x="275" y="510"/>
                            </Array>
                        </mxGeometry>
                    </mxCell>
                </object>
                <mxCell id="iYXQ7Nyt1rIkLqZsySKX-1586" value="&lt;span style=&quot;&quot;&gt;websocket&lt;/span&gt;" style="edgeLabel;html=1;align=center;verticalAlign=middle;resizable=0;points=[];fontColor=#EEEEEE;labelBackgroundColor=none;" parent="iYXQ7Nyt1rIkLqZsySKX-1583" vertex="1" connectable="0">
                    <mxGeometry x="-0.2519" y="6" relative="1" as="geometry">
                        <mxPoint x="130.67000000000002" y="129" as="offset"/>
                    </mxGeometry>
                </mxCell>
                <mxCell id="1393" value="&lt;span style=&quot;color: rgb(255 , 255 , 255)&quot;&gt;websocket&lt;/span&gt;" style="edgeLabel;html=1;align=center;verticalAlign=middle;resizable=0;points=[];labelBackgroundColor=#18191A;" parent="iYXQ7Nyt1rIkLqZsySKX-1583" vertex="1" connectable="0">
                    <mxGeometry x="-0.7881" y="-1" relative="1" as="geometry">
                        <mxPoint y="13" as="offset"/>
                    </mxGeometry>
                </mxCell>
                <mxCell id="iYXQ7Nyt1rIkLqZsySKX-1559" value="nym ws client" style="strokeColor=#006EAF;strokeWidth=3;shadow=0;html=1;fillColor=#1ba1e2;fontColor=#ffffff;" parent="1" vertex="1">
                    <mxGeometry x="490" y="590" width="120" height="40" as="geometry"/>
                </mxCell>
                <mxCell id="iYXQ7Nyt1rIkLqZsySKX-1561" value="" style="endArrow=classic;startArrow=classic;html=1;exitX=0.5;exitY=0;exitDx=0;exitDy=0;entryX=0.25;entryY=1;entryDx=0;entryDy=0;strokeColor=#FFFFFF;" parent="1" source="iYXQ7Nyt1rIkLqZsySKX-1556" target="iYXQ7Nyt1rIkLqZsySKX-1545" edge="1">
                    <mxGeometry width="50" height="50" relative="1" as="geometry">
                        <mxPoint x="560" y="385" as="sourcePoint"/>
                        <mxPoint x="250" y="405" as="targetPoint"/>
                        <Array as="points">
                            <mxPoint x="245" y="530"/>
                        </Array>
                    </mxGeometry>
                </mxCell>
                <mxCell id="iYXQ7Nyt1rIkLqZsySKX-1587" value="&lt;font&gt;websocket&lt;br&gt;&lt;/font&gt;" style="edgeLabel;html=1;align=center;verticalAlign=middle;resizable=0;points=[];fontColor=#EEEEEE;labelBackgroundColor=none;" parent="iYXQ7Nyt1rIkLqZsySKX-1561" vertex="1" connectable="0">
                    <mxGeometry x="-0.4989" y="1" relative="1" as="geometry">
                        <mxPoint x="31" y="103.62" as="offset"/>
                    </mxGeometry>
                </mxCell>
                <mxCell id="1391" value="&lt;span style=&quot;color: rgb(255 , 255 , 255)&quot;&gt;websocket&lt;/span&gt;" style="edgeLabel;html=1;align=center;verticalAlign=middle;resizable=0;points=[];labelBackgroundColor=#18191A;" parent="iYXQ7Nyt1rIkLqZsySKX-1561" vertex="1" connectable="0">
                    <mxGeometry x="-0.5976" y="-3" relative="1" as="geometry">
                        <mxPoint y="2" as="offset"/>
                    </mxGeometry>
                </mxCell>
                <mxCell id="iYXQ7Nyt1rIkLqZsySKX-1565" value="" style="endArrow=classic;startArrow=classic;html=1;exitX=0;exitY=1;exitDx=0;exitDy=0;entryX=0.433;entryY=-0.05;entryDx=0;entryDy=0;entryPerimeter=0;strokeColor=#FFFFFF;" parent="1" source="iYXQ7Nyt1rIkLqZsySKX-1545" target="iYXQ7Nyt1rIkLqZsySKX-1555" edge="1">
                    <mxGeometry width="50" height="50" relative="1" as="geometry">
                        <mxPoint x="360" y="585" as="sourcePoint"/>
                        <mxPoint x="285" y="410" as="targetPoint"/>
                        <Array as="points">
                            <mxPoint x="215" y="460"/>
                            <mxPoint x="87" y="460"/>
                        </Array>
                    </mxGeometry>
                </mxCell>
                <mxCell id="1390" value="&lt;span style=&quot;color: rgb(255 , 255 , 255)&quot;&gt;websocket&lt;/span&gt;" style="edgeLabel;html=1;align=center;verticalAlign=middle;resizable=0;points=[];labelBackgroundColor=#18191A;" parent="iYXQ7Nyt1rIkLqZsySKX-1565" vertex="1" connectable="0">
                    <mxGeometry x="0.3974" y="1" relative="1" as="geometry">
                        <mxPoint x="2" y="61" as="offset"/>
                    </mxGeometry>
                </mxCell>
                <mxCell id="iYXQ7Nyt1rIkLqZsySKX-1566" value="" style="endArrow=classic;startArrow=classic;html=1;strokeColor=#FFFFFF;" parent="1" source="iYXQ7Nyt1rIkLqZsySKX-1558" edge="1">
                    <mxGeometry width="50" height="50" relative="1" as="geometry">
                        <mxPoint x="635" y="1145" as="sourcePoint"/>
                        <mxPoint x="555" y="630" as="targetPoint"/>
                    </mxGeometry>
                </mxCell>
                <mxCell id="iYXQ7Nyt1rIkLqZsySKX-1571" value="" style="html=1;entryX=0.5;entryY=1;entryDx=0;entryDy=0;exitX=0.5;exitY=0;exitDx=0;exitDy=0;shadow=0;fontSize=12;strokeWidth=1;strokeColor=#FFFFFF;" parent="1" source="iYXQ7Nyt1rIkLqZsySKX-1545" target="iYXQ7Nyt1rIkLqZsySKX-1544" edge="1">
                    <mxGeometry width="50" height="50" relative="1" as="geometry">
                        <mxPoint x="560" y="385" as="sourcePoint"/>
                        <mxPoint x="610" y="335" as="targetPoint"/>
                    </mxGeometry>
                </mxCell>
                <mxCell id="iYXQ7Nyt1rIkLqZsySKX-1572" value="" style="html=1;entryX=0.625;entryY=0.95;entryDx=0;entryDy=0;exitX=0.5;exitY=0;exitDx=0;exitDy=0;entryPerimeter=0;shadow=0;fontSize=12;strokeWidth=1;strokeColor=#FFFFFF;" parent="1" source="iYXQ7Nyt1rIkLqZsySKX-1545" target="iYXQ7Nyt1rIkLqZsySKX-1550" edge="1">
                    <mxGeometry width="50" height="50" relative="1" as="geometry">
                        <mxPoint x="285" y="370" as="sourcePoint"/>
                        <mxPoint x="360" y="335" as="targetPoint"/>
                    </mxGeometry>
                </mxCell>
                <mxCell id="iYXQ7Nyt1rIkLqZsySKX-1573" value="" style="html=1;entryX=0.5;entryY=1;entryDx=0;entryDy=0;shadow=0;fontSize=12;strokeWidth=1;strokeColor=#FFFFFF;" parent="1" source="iYXQ7Nyt1rIkLqZsySKX-1544" target="iYXQ7Nyt1rIkLqZsySKX-1546" edge="1">
                    <mxGeometry width="50" height="50" relative="1" as="geometry">
                        <mxPoint x="285" y="370" as="sourcePoint"/>
                        <mxPoint x="360" y="335" as="targetPoint"/>
                    </mxGeometry>
                </mxCell>
                <mxCell id="iYXQ7Nyt1rIkLqZsySKX-1574" value="" style="html=1;entryX=0.5;entryY=1;entryDx=0;entryDy=0;exitX=0.5;exitY=0;exitDx=0;exitDy=0;shadow=0;fontSize=12;strokeWidth=1;strokeColor=#FFFFFF;" parent="1" source="iYXQ7Nyt1rIkLqZsySKX-1550" target="iYXQ7Nyt1rIkLqZsySKX-1543" edge="1">
                    <mxGeometry width="50" height="50" relative="1" as="geometry">
                        <mxPoint x="100" y="295" as="sourcePoint"/>
                        <mxPoint x="100" y="259" as="targetPoint"/>
                    </mxGeometry>
                </mxCell>
                <mxCell id="iYXQ7Nyt1rIkLqZsySKX-1576" style="edgeStyle=orthogonalEdgeStyle;orthogonalLoop=1;jettySize=auto;html=1;startArrow=none;entryX=0.5;entryY=1;entryDx=0;entryDy=0;shadow=0;fontSize=12;strokeWidth=1;strokeColor=#FFFFFF;" parent="1" target="iYXQ7Nyt1rIkLqZsySKX-1547" edge="1">
                    <mxGeometry relative="1" as="geometry">
                        <mxPoint x="350" y="215" as="sourcePoint"/>
                        <mxPoint x="210" y="183" as="targetPoint"/>
                    </mxGeometry>
                </mxCell>
                <mxCell id="iYXQ7Nyt1rIkLqZsySKX-1577" value="" style="html=1;exitX=0.5;exitY=0;exitDx=0;exitDy=0;shadow=0;fontSize=12;strokeWidth=1;strokeColor=#FFFFFF;" parent="1" source="iYXQ7Nyt1rIkLqZsySKX-1550" edge="1">
                    <mxGeometry width="50" height="50" relative="1" as="geometry">
                        <mxPoint x="210" y="295" as="sourcePoint"/>
                        <mxPoint x="290" y="229" as="targetPoint"/>
                    </mxGeometry>
                </mxCell>
                <mxCell id="iYXQ7Nyt1rIkLqZsySKX-1578" value="" style="html=1;entryX=0;entryY=0.75;entryDx=0;entryDy=0;exitX=0.5;exitY=0;exitDx=0;exitDy=0;shadow=0;fontSize=12;strokeWidth=1;strokeColor=#FFFFFF;" parent="1" source="iYXQ7Nyt1rIkLqZsySKX-1543" target="iYXQ7Nyt1rIkLqZsySKX-1547" edge="1">
                    <mxGeometry width="50" height="50" relative="1" as="geometry">
                        <mxPoint x="210" y="295" as="sourcePoint"/>
                        <mxPoint x="300" y="249" as="targetPoint"/>
                    </mxGeometry>
                </mxCell>
                <mxCell id="iYXQ7Nyt1rIkLqZsySKX-1579" value="" style="html=1;entryX=1;entryY=0.5;entryDx=0;entryDy=0;exitX=0.5;exitY=0;exitDx=0;exitDy=0;shadow=0;fontSize=12;strokeWidth=1;strokeColor=#FFFFFF;" parent="1" source="iYXQ7Nyt1rIkLqZsySKX-1544" target="iYXQ7Nyt1rIkLqZsySKX-1543" edge="1">
                    <mxGeometry width="50" height="50" relative="1" as="geometry">
                        <mxPoint x="210" y="295" as="sourcePoint"/>
                        <mxPoint x="300" y="249" as="targetPoint"/>
                    </mxGeometry>
                </mxCell>
                <mxCell id="iYXQ7Nyt1rIkLqZsySKX-1580" value="" style="html=1;entryX=1;entryY=0.75;entryDx=0;entryDy=0;exitX=0.5;exitY=0;exitDx=0;exitDy=0;shadow=0;fontSize=12;strokeWidth=1;strokeColor=#FFFFFF;" parent="1" source="iYXQ7Nyt1rIkLqZsySKX-1546" target="iYXQ7Nyt1rIkLqZsySKX-1542" edge="1">
                    <mxGeometry width="50" height="50" relative="1" as="geometry">
                        <mxPoint x="210" y="219" as="sourcePoint"/>
                        <mxPoint x="300" y="173" as="targetPoint"/>
                    </mxGeometry>
                </mxCell>
                <mxCell id="iYXQ7Nyt1rIkLqZsySKX-1581" value="" style="html=1;exitX=0.5;exitY=0;exitDx=0;exitDy=0;shadow=0;fontSize=12;strokeWidth=1;entryX=0;entryY=0.5;entryDx=0;entryDy=0;strokeColor=#FFFFFF;" parent="1" source="iYXQ7Nyt1rIkLqZsySKX-1547" target="iYXQ7Nyt1rIkLqZsySKX-1545" edge="1">
                    <mxGeometry width="50" height="50" relative="1" as="geometry">
                        <mxPoint x="360" y="219" as="sourcePoint"/>
                        <mxPoint x="220" y="380" as="targetPoint"/>
                        <Array as="points">
                            <mxPoint x="350" y="105"/>
                            <mxPoint x="20" y="105"/>
                            <mxPoint x="20" y="380"/>
                        </Array>
                    </mxGeometry>
                </mxCell>
                <mxCell id="iYXQ7Nyt1rIkLqZsySKX-1589" value="Bitcoin Blockchain" style="strokeColor=#432D57;strokeWidth=3;shadow=0;html=1;fillColor=#76608a;fontColor=#ffffff;" parent="1" vertex="1">
                    <mxGeometry x="490" y="730" width="130" height="40" as="geometry"/>
                </mxCell>
                <mxCell id="iYXQ7Nyt1rIkLqZsySKX-1597" style="edgeStyle=orthogonalEdgeStyle;orthogonalLoop=1;jettySize=auto;html=1;entryX=0.5;entryY=0;entryDx=0;entryDy=0;startArrow=classicThin;startFill=1;strokeWidth=1;strokeColor=#FFFFFF;" parent="1" source="iYXQ7Nyt1rIkLqZsySKX-1591" target="iYXQ7Nyt1rIkLqZsySKX-1596" edge="1">
                    <mxGeometry relative="1" as="geometry"/>
                </mxCell>
                <mxCell id="iYXQ7Nyt1rIkLqZsySKX-1591" value="service provider" style="strokeColor=#BD7000;strokeWidth=3;shadow=0;html=1;fillColor=#f0a30a;fontColor=#FFFFFF;" parent="1" vertex="1">
                    <mxGeometry x="651.5" y="660" width="130" height="40" as="geometry"/>
                </mxCell>
                <mxCell id="iYXQ7Nyt1rIkLqZsySKX-1594" style="edgeStyle=orthogonalEdgeStyle;orthogonalLoop=1;jettySize=auto;html=1;exitX=0.5;exitY=0;exitDx=0;exitDy=0;startArrow=classicThin;startFill=1;strokeWidth=1;entryX=0.683;entryY=1;entryDx=0;entryDy=0;entryPerimeter=0;strokeColor=#FFFFFF;" parent="1" edge="1">
                    <mxGeometry relative="1" as="geometry">
                        <mxPoint x="296.96000000000004" y="400" as="targetPoint"/>
                        <Array as="points">
                            <mxPoint x="717" y="485"/>
                            <mxPoint x="297" y="485"/>
                        </Array>
                        <mxPoint x="716.5" y="590" as="sourcePoint"/>
                    </mxGeometry>
                </mxCell>
                <mxCell id="1394" value="&lt;span style=&quot;color: rgb(255 , 255 , 255)&quot;&gt;websocket&lt;/span&gt;" style="edgeLabel;html=1;align=center;verticalAlign=middle;resizable=0;points=[];labelBackgroundColor=#18191A;" parent="iYXQ7Nyt1rIkLqZsySKX-1594" vertex="1" connectable="0">
                    <mxGeometry x="-0.8788" y="1" relative="1" as="geometry">
                        <mxPoint x="3" y="1" as="offset"/>
                    </mxGeometry>
                </mxCell>
                <mxCell id="iYXQ7Nyt1rIkLqZsySKX-1592" value="nym ws client" style="strokeColor=#006EAF;strokeWidth=3;shadow=0;html=1;fillColor=#1ba1e2;fontColor=#ffffff;" parent="1" vertex="1">
                    <mxGeometry x="656.5" y="590" width="120" height="40" as="geometry"/>
                </mxCell>
                <mxCell id="iYXQ7Nyt1rIkLqZsySKX-1595" value="" style="endArrow=classic;startArrow=classic;html=1;exitX=0.5;exitY=0;exitDx=0;exitDy=0;entryX=0.5;entryY=1;entryDx=0;entryDy=0;strokeColor=#FFFFFF;" parent="1" source="iYXQ7Nyt1rIkLqZsySKX-1591" target="iYXQ7Nyt1rIkLqZsySKX-1592" edge="1">
                    <mxGeometry width="50" height="50" relative="1" as="geometry">
                        <mxPoint x="655" y="620" as="sourcePoint"/>
                        <mxPoint x="970" y="613" as="targetPoint"/>
                    </mxGeometry>
                </mxCell>
                <mxCell id="iYXQ7Nyt1rIkLqZsySKX-1596" value="Ethereum Blockchain" style="strokeColor=#432D57;strokeWidth=3;shadow=0;html=1;fillColor=#76608a;fontColor=#ffffff;" parent="1" vertex="1">
                    <mxGeometry x="651.5" y="730" width="130" height="40" as="geometry"/>
                </mxCell>
                <mxCell id="iYXQ7Nyt1rIkLqZsySKX-1610" style="edgeStyle=orthogonalEdgeStyle;orthogonalLoop=1;jettySize=auto;html=1;entryX=0.5;entryY=0;entryDx=0;entryDy=0;startArrow=classicThin;startFill=1;strokeWidth=1;strokeColor=#FFFFFF;" parent="1" source="iYXQ7Nyt1rIkLqZsySKX-1611" target="iYXQ7Nyt1rIkLqZsySKX-1614" edge="1">
                    <mxGeometry relative="1" as="geometry"/>
                </mxCell>
                <mxCell id="iYXQ7Nyt1rIkLqZsySKX-1611" value="service provider" style="strokeColor=#BD7000;strokeWidth=3;shadow=0;html=1;fillColor=#f0a30a;fontColor=#FFFFFF;" parent="1" vertex="1">
                    <mxGeometry x="816.5" y="660" width="130" height="40" as="geometry"/>
                </mxCell>
                <mxCell id="iYXQ7Nyt1rIkLqZsySKX-1615" style="edgeStyle=orthogonalEdgeStyle;orthogonalLoop=1;jettySize=auto;html=1;entryX=1;entryY=1;entryDx=0;entryDy=0;startArrow=classicThin;startFill=1;strokeWidth=1;strokeColor=#FFFFFF;" parent="1" source="iYXQ7Nyt1rIkLqZsySKX-1612" target="iYXQ7Nyt1rIkLqZsySKX-1545" edge="1">
                    <mxGeometry relative="1" as="geometry">
                        <Array as="points">
                            <mxPoint x="882" y="550"/>
                            <mxPoint x="882" y="550"/>
                            <mxPoint x="882" y="465"/>
                            <mxPoint x="335" y="465"/>
                        </Array>
                    </mxGeometry>
                </mxCell>
                <mxCell id="1395" value="&lt;span style=&quot;color: rgb(255 , 255 , 255)&quot;&gt;websocket&lt;/span&gt;" style="edgeLabel;html=1;align=center;verticalAlign=middle;resizable=0;points=[];labelBackgroundColor=#18191A;" parent="iYXQ7Nyt1rIkLqZsySKX-1615" vertex="1" connectable="0">
                    <mxGeometry x="-0.9079" y="1" relative="1" as="geometry">
                        <mxPoint as="offset"/>
                    </mxGeometry>
                </mxCell>
                <mxCell id="iYXQ7Nyt1rIkLqZsySKX-1612" value="nym ws client" style="strokeColor=#006EAF;strokeWidth=3;shadow=0;html=1;fillColor=#1ba1e2;fontColor=#ffffff;" parent="1" vertex="1">
                    <mxGeometry x="821.5" y="590" width="120" height="40" as="geometry"/>
                </mxCell>
                <mxCell id="iYXQ7Nyt1rIkLqZsySKX-1613" value="" style="endArrow=classic;startArrow=classic;html=1;exitX=0.5;exitY=0;exitDx=0;exitDy=0;entryX=0.5;entryY=1;entryDx=0;entryDy=0;strokeColor=#FFFFFF;" parent="1" source="iYXQ7Nyt1rIkLqZsySKX-1611" target="iYXQ7Nyt1rIkLqZsySKX-1612" edge="1">
                    <mxGeometry width="50" height="50" relative="1" as="geometry">
                        <mxPoint x="820" y="620" as="sourcePoint"/>
                        <mxPoint x="1135" y="613" as="targetPoint"/>
                    </mxGeometry>
                </mxCell>
                <mxCell id="iYXQ7Nyt1rIkLqZsySKX-1614" value="Covid Database" style="strokeColor=#432D57;strokeWidth=3;shadow=0;html=1;fillColor=#76608a;fontColor=#ffffff;" parent="1" vertex="1">
                    <mxGeometry x="816.5" y="729" width="130" height="40" as="geometry"/>
                </mxCell>
                <mxCell id="iYXQ7Nyt1rIkLqZsySKX-1620" value="Nym Platform Code" style="strokeColor=#006EAF;strokeWidth=3;shadow=0;html=1;fillColor=#1ba1e2;fontColor=#ffffff;" parent="1" vertex="1">
                    <mxGeometry x="985" y="260" width="140" height="40" as="geometry"/>
                </mxCell>
                <mxCell id="iYXQ7Nyt1rIkLqZsySKX-1622" value="Privacy Enhanced App" style="strokeColor=#BD7000;strokeWidth=3;shadow=0;html=1;fillColor=#f0a30a;fontColor=#FFFFFF;" parent="1" vertex="1">
                    <mxGeometry x="985" y="317" width="150" height="40" as="geometry"/>
                </mxCell>
                <mxCell id="iYXQ7Nyt1rIkLqZsySKX-1623" value="Existing app" style="strokeWidth=3;shadow=0;html=1;fillColor=#09555B;strokeColor=#BAC8D3;fontColor=#EEEEEE;" parent="1" vertex="1">
                    <mxGeometry x="985" y="375" width="120" height="40" as="geometry"/>
                </mxCell>
                <mxCell id="iYXQ7Nyt1rIkLqZsySKX-1628" value="&lt;span style=&quot;&quot;&gt;websocket&lt;/span&gt;" style="edgeLabel;html=1;align=center;verticalAlign=middle;resizable=0;points=[];fontColor=#EEEEEE;labelBackgroundColor=none;" parent="1" vertex="1" connectable="0">
                    <mxGeometry x="722.9985757263191" y="648.9985714285715" as="geometry">
                        <mxPoint x="22.5" y="-5.5" as="offset"/>
                    </mxGeometry>
                </mxCell>
                <mxCell id="iYXQ7Nyt1rIkLqZsySKX-1629" value="&lt;span style=&quot;&quot;&gt;websocket&lt;/span&gt;" style="edgeLabel;html=1;align=center;verticalAlign=middle;resizable=0;points=[];fontColor=#EEEEEE;labelBackgroundColor=none;" parent="1" vertex="1" connectable="0">
                    <mxGeometry x="888.9985757263191" y="648.9985714285715" as="geometry">
                        <mxPoint x="22.5" y="-5.5" as="offset"/>
                    </mxGeometry>
                </mxCell>
                <mxCell id="iYXQ7Nyt1rIkLqZsySKX-1630" value="&lt;font style=&quot;font-size: 12px&quot;&gt;Legend&lt;/font&gt;" style="text;strokeColor=none;fillColor=none;html=1;fontSize=24;fontStyle=1;verticalAlign=middle;align=left;shadow=0;fontColor=#EEEEEE;" parent="1" vertex="1">
                    <mxGeometry x="985" y="209" width="100" height="40" as="geometry"/>
                </mxCell>
                <mxCell id="iYXQ7Nyt1rIkLqZsySKX-1554" value="Bob" style="shape=umlActor;verticalLabelPosition=bottom;verticalAlign=top;html=1;outlineConnect=0;fillColor=#09555B;strokeColor=#BAC8D3;fontColor=#EEEEEE;" parent="1" vertex="1">
                    <mxGeometry x="230" y="709" width="30" height="60" as="geometry"/>
                </mxCell>
                <mxCell id="iYXQ7Nyt1rIkLqZsySKX-1556" value="nym ws client" style="strokeColor=#006EAF;strokeWidth=3;shadow=0;html=1;fillColor=#1ba1e2;fontColor=#ffffff;" parent="1" vertex="1">
                    <mxGeometry x="185" y="590" width="120" height="40" as="geometry"/>
                </mxCell>
                <mxCell id="iYXQ7Nyt1rIkLqZsySKX-1562" value="" style="edgeStyle=orthogonalEdgeStyle;orthogonalLoop=1;jettySize=auto;html=1;startArrow=classic;startFill=1;strokeColor=#FFFFFF;" parent="1" source="iYXQ7Nyt1rIkLqZsySKX-1560" target="iYXQ7Nyt1rIkLqZsySKX-1556" edge="1">
                    <mxGeometry relative="1" as="geometry"/>
                </mxCell>
                <mxCell id="iYXQ7Nyt1rIkLqZsySKX-1560" value="client app" style="strokeColor=#BD7000;strokeWidth=3;shadow=0;html=1;fillColor=#f0a30a;fontColor=#FFFFFF;" parent="1" vertex="1">
                    <mxGeometry x="180" y="657.5" width="130" height="40" as="geometry"/>
                </mxCell>
                <mxCell id="iYXQ7Nyt1rIkLqZsySKX-1632" value="service provider" style="strokeColor=#BD7000;strokeWidth=3;shadow=0;html=1;fillColor=#f0a30a;fontColor=#FFFFFF;" parent="1" vertex="1">
                    <mxGeometry x="980" y="662.5" width="130" height="35" as="geometry"/>
                </mxCell>
                <mxCell id="iYXQ7Nyt1rIkLqZsySKX-1634" style="edgeStyle=orthogonalEdgeStyle;orthogonalLoop=1;jettySize=auto;html=1;exitX=0.5;exitY=1;exitDx=0;exitDy=0;entryX=0.5;entryY=0;entryDx=0;entryDy=0;startArrow=classic;startFill=1;endArrow=classicThin;endFill=1;strokeWidth=1;strokeColor=#FFFFFF;" parent="1" source="iYXQ7Nyt1rIkLqZsySKX-1633" target="iYXQ7Nyt1rIkLqZsySKX-1632" edge="1">
                    <mxGeometry relative="1" as="geometry"/>
                </mxCell>
                <mxCell id="iYXQ7Nyt1rIkLqZsySKX-1636" style="edgeStyle=orthogonalEdgeStyle;orthogonalLoop=1;jettySize=auto;html=1;entryX=1;entryY=0.75;entryDx=0;entryDy=0;startArrow=classic;startFill=1;endArrow=classicThin;endFill=1;strokeWidth=1;exitX=0.5;exitY=0;exitDx=0;exitDy=0;strokeColor=#FFFFFF;" parent="1" source="iYXQ7Nyt1rIkLqZsySKX-1633" target="iYXQ7Nyt1rIkLqZsySKX-1545" edge="1">
                    <mxGeometry relative="1" as="geometry">
                        <Array as="points">
                            <mxPoint x="1045" y="560"/>
                            <mxPoint x="920" y="560"/>
                            <mxPoint x="920" y="420"/>
                            <mxPoint x="390" y="420"/>
                            <mxPoint x="390" y="390"/>
                        </Array>
                    </mxGeometry>
                </mxCell>
                <mxCell id="1396" value="&lt;span style=&quot;color: rgb(255 , 255 , 255)&quot;&gt;websocket&lt;/span&gt;" style="edgeLabel;html=1;align=center;verticalAlign=middle;resizable=0;points=[];labelBackgroundColor=#18191A;" parent="iYXQ7Nyt1rIkLqZsySKX-1636" vertex="1" connectable="0">
                    <mxGeometry x="-0.9195" y="1" relative="1" as="geometry">
                        <mxPoint x="-51" y="-2" as="offset"/>
                    </mxGeometry>
                </mxCell>
                <mxCell id="iYXQ7Nyt1rIkLqZsySKX-1633" value="nym ws client" style="strokeColor=#006EAF;strokeWidth=3;shadow=0;html=1;fillColor=#1ba1e2;fontColor=#ffffff;" parent="1" vertex="1">
                    <mxGeometry x="985" y="590" width="120" height="40" as="geometry"/>
                </mxCell>
                <mxCell id="iYXQ7Nyt1rIkLqZsySKX-1555" value="nym wasm client" style="strokeColor=#006EAF;strokeWidth=3;shadow=0;html=1;fillColor=#1ba1e2;fontColor=#ffffff;" parent="1" vertex="1">
                    <mxGeometry x="35" y="590" width="120" height="40" as="geometry"/>
                </mxCell>
                <mxCell id="iYXQ7Nyt1rIkLqZsySKX-1557" value="client app (js)" style="strokeColor=#BD7000;strokeWidth=3;shadow=0;html=1;fillColor=#f0a30a;fontColor=#FFFFFF;" parent="1" vertex="1">
                    <mxGeometry x="35" y="630" width="120" height="40" as="geometry"/>
                </mxCell>
                <mxCell id="iYXQ7Nyt1rIkLqZsySKX-1639" value="&lt;span style=&quot;&quot;&gt;websocket&lt;/span&gt;" style="edgeLabel;html=1;align=center;verticalAlign=middle;resizable=0;points=[];fontColor=#EEEEEE;labelBackgroundColor=none;" parent="1" vertex="1" connectable="0">
                    <mxGeometry x="1058.9985757263191" y="649.9985714285715" as="geometry">
                        <mxPoint x="22.5" y="-5.5" as="offset"/>
                    </mxGeometry>
                </mxCell>
                <mxCell id="iYXQ7Nyt1rIkLqZsySKX-1652" style="edgeStyle=orthogonalEdgeStyle;orthogonalLoop=1;jettySize=auto;html=1;entryX=0.367;entryY=1.032;entryDx=0;entryDy=0;entryPerimeter=0;startArrow=classic;startFill=1;endArrow=classicThin;endFill=1;strokeWidth=1;strokeColor=#FFFFFF;" parent="1" source="iYXQ7Nyt1rIkLqZsySKX-1648" target="iYXQ7Nyt1rIkLqZsySKX-1545" edge="1">
                    <mxGeometry relative="1" as="geometry">
                        <Array as="points">
                            <mxPoint x="390" y="530"/>
                            <mxPoint x="259" y="530"/>
                        </Array>
                    </mxGeometry>
                </mxCell>
                <mxCell id="1392" value="&lt;span style=&quot;color: rgb(255 , 255 , 255)&quot;&gt;websocket&lt;/span&gt;" style="edgeLabel;html=1;align=center;verticalAlign=middle;resizable=0;points=[];labelBackgroundColor=#18191A;" parent="iYXQ7Nyt1rIkLqZsySKX-1652" vertex="1" connectable="0">
                    <mxGeometry x="-0.7668" y="1" relative="1" as="geometry">
                        <mxPoint x="4" y="1" as="offset"/>
                    </mxGeometry>
                </mxCell>
                <mxCell id="iYXQ7Nyt1rIkLqZsySKX-1648" value="nym socks5 client" style="strokeColor=#006EAF;strokeWidth=3;shadow=0;html=1;fillColor=#1ba1e2;fontColor=#ffffff;" parent="1" vertex="1">
                    <mxGeometry x="330" y="590" width="120" height="40" as="geometry"/>
                </mxCell>
                <mxCell id="iYXQ7Nyt1rIkLqZsySKX-1651" style="edgeStyle=orthogonalEdgeStyle;orthogonalLoop=1;jettySize=auto;html=1;entryX=0.496;entryY=0.925;entryDx=0;entryDy=0;entryPerimeter=0;startArrow=classic;startFill=1;endArrow=classicThin;endFill=1;strokeWidth=1;strokeColor=#FFFFFF;" parent="1" source="iYXQ7Nyt1rIkLqZsySKX-1650" target="iYXQ7Nyt1rIkLqZsySKX-1648" edge="1">
                    <mxGeometry relative="1" as="geometry"/>
                </mxCell>
                <mxCell id="iYXQ7Nyt1rIkLqZsySKX-1650" value="Crypto Wallet" style="strokeWidth=3;shadow=0;html=1;fillColor=#09555B;strokeColor=#BAC8D3;fontColor=#EEEEEE;" parent="1" vertex="1">
                    <mxGeometry x="330" y="660" width="120" height="37.5" as="geometry"/>
                </mxCell>
                <mxCell id="iYXQ7Nyt1rIkLqZsySKX-1655" value="&lt;font&gt;socks5&lt;/font&gt;" style="edgeLabel;html=1;align=center;verticalAlign=middle;resizable=0;points=[];fontColor=#EEEEEE;labelBackgroundColor=none;" parent="1" vertex="1" connectable="0">
                    <mxGeometry x="395" y="546.0009523809524" as="geometry">
                        <mxPoint x="16" y="97.62" as="offset"/>
                    </mxGeometry>
                </mxCell>
                <mxCell id="hNXUkgo5j0phEpmYKnsM-1387" value="Carol" style="shape=umlActor;verticalLabelPosition=bottom;verticalAlign=top;html=1;outlineConnect=0;fillColor=#09555B;strokeColor=#BAC8D3;fontColor=#EEEEEE;" parent="1" vertex="1">
                    <mxGeometry x="370" y="709" width="30" height="60" as="geometry"/>
                </mxCell>
                <mxCell id="hNXUkgo5j0phEpmYKnsM-1390" value="External System" style="strokeColor=#432D57;strokeWidth=3;shadow=0;html=1;fillColor=#76608a;fontColor=#ffffff;" parent="1" vertex="1">
                    <mxGeometry x="987" y="435" width="120" height="40" as="geometry"/>
                </mxCell>
                <mxCell id="iYXQ7Nyt1rIkLqZsySKX-1584" value="" style="endArrow=classic;html=1;exitX=0.5;exitY=0;exitDx=0;exitDy=0;entryX=0;entryY=0.5;entryDx=0;entryDy=0;shadow=0;fontSize=12;strokeWidth=1;strokeColor=#FFFFFF;" parent="1" source="iYXQ7Nyt1rIkLqZsySKX-1542" target="iYXQ7Nyt1rIkLqZsySKX-1545" edge="1">
                    <mxGeometry width="50" height="50" relative="1" as="geometry">
                        <mxPoint x="420" y="163" as="sourcePoint"/>
                        <mxPoint x="345" y="390" as="targetPoint"/>
                        <Array as="points">
                            <mxPoint x="200" y="105"/>
                            <mxPoint x="20" y="105"/>
                            <mxPoint x="20" y="380"/>
                        </Array>
                    </mxGeometry>
                </mxCell>
                <mxCell id="1389" value="tcp&lt;br&gt;" style="edgeLabel;html=1;align=center;verticalAlign=middle;resizable=0;points=[];labelBackgroundColor=#18191A;fontColor=#FFFFFF;" parent="iYXQ7Nyt1rIkLqZsySKX-1584" vertex="1" connectable="0">
                    <mxGeometry x="0.677" y="-3" relative="1" as="geometry">
                        <mxPoint x="-16" y="-3" as="offset"/>
                    </mxGeometry>
                </mxCell>
            </root>
        </mxGraphModel>
    </diagram>
</mxfile>